<?xml version="1.0" standalone="no"?>
<!DOCTYPE svg PUBLIC "-//W3C//DTD SVG 20010904//EN"
 "http://www.w3.org/TR/2001/REC-SVG-20010904/DTD/svg10.dtd">
<svg version="1.0" xmlns="http://www.w3.org/2000/svg"
 width="512.000000pt" height="512.000000pt" viewBox="0 0 512.000000 512.000000"
 preserveAspectRatio="xMidYMid meet">
<metadata>
Created by potrace 1.14, written by Peter Selinger 2001-2017
</metadata>
<g transform="translate(0.000000,512.000000) scale(0.100000,-0.100000)"
fill="#000000" stroke="none">
<path d="M2490 4999 c-39 -12 -66 -30 -91 -58 -46 -51 -55 -102 -57 -328 -1
-93 -4 -178 -6 -188 -2 -11 -7 -51 -11 -90 -20 -206 -145 -508 -370 -900 -120
-208 -179 -300 -288 -447 -46 -62 -119 -169 -163 -238 -43 -69 -86 -135 -95
-148 -32 -44 -95 -52 -426 -49 -282 2 -302 1 -313 -16 -11 -18 -16 -50 -25
-147 -17 -183 -25 -1280 -11 -1535 13 -237 22 -329 37 -357 11 -21 0 -20 294
-19 127 1 293 1 370 2 77 0 149 -2 160 -5 11 -2 34 -7 50 -11 17 -4 82 -33
145 -65 138 -69 322 -150 445 -195 228 -85 328 -99 690 -99 390 1 638 19 729
54 14 5 26 7 26 5 0 -11 154 52 239 99 113 61 168 113 206 192 31 64 37 143
22 284 -4 36 -3 70 1 75 4 6 25 19 47 30 80 39 160 141 192 243 45 144 8 314
-91 420 -45 48 -49 62 -17 62 31 0 136 57 178 96 44 41 85 119 102 193 9 41 8
155 -2 191 -2 8 -8 29 -12 45 -12 43 -47 96 -94 140 -43 41 -132 95 -156 95
-8 0 -17 5 -20 10 -4 6 3 9 16 7 28 -5 104 17 138 40 104 68 161 179 166 323
5 171 -89 310 -236 350 -46 13 -340 19 -1016 23 -199 1 -364 4 -367 8 -15 15
-32 120 -30 189 4 147 43 284 130 460 116 235 145 330 150 485 8 270 -79 525
-231 671 -105 101 -277 145 -405 103z"/>
</g>
</svg>
